<svg
  width="50"
  height="50"
  viewBox="0 0 50 50"
  fill="none"
  xmlns="http://www.w3.org/2000/svg"
>
  <g clip-path="url(#clip0_1494_1855)">
    <path
      d="M41.1094 34.7656C40.573 35.0444 40.0198 35.2896 39.4531 35.5C37.6587 36.1679 35.7585 36.5067 33.8438 36.5C26.4531 36.5 20.0156 31.4219 20.0156 24.8906C20.0252 24.0161 20.2677 23.1599 20.7181 22.4101C21.1685 21.6604 21.8105 21.0442 22.5781 20.625C15.8906 20.9062 14.1719 27.875 14.1719 31.9531C14.1719 43.5156 24.8125 44.6719 27.1094 44.6719C28.3438 44.6719 30.2031 44.3125 31.3281 43.9531L31.5312 43.8906C35.8366 42.4028 39.5068 39.493 41.9375 35.6406C42.0081 35.5236 42.0385 35.3866 42.0238 35.2507C42.0091 35.1147 41.9503 34.9874 41.8563 34.8881C41.7624 34.7888 41.6384 34.723 41.5035 34.7009C41.3686 34.6788 41.2301 34.7015 41.1094 34.7656Z"
      fill="url(#paint0_linear_1494_1855)"
    />
    <path
      opacity="0.35"
      d="M41.1094 34.7656C40.573 35.0444 40.0198 35.2896 39.4531 35.5C37.6587 36.1679 35.7585 36.5067 33.8438 36.5C26.4531 36.5 20.0156 31.4219 20.0156 24.8906C20.0252 24.0161 20.2677 23.1599 20.7181 22.4101C21.1685 21.6604 21.8105 21.0442 22.5781 20.625C15.8906 20.9062 14.1719 27.875 14.1719 31.9531C14.1719 43.5156 24.8125 44.6719 27.1094 44.6719C28.3438 44.6719 30.2031 44.3125 31.3281 43.9531L31.5312 43.8906C35.8366 42.4028 39.5068 39.493 41.9375 35.6406C42.0081 35.5236 42.0385 35.3866 42.0238 35.2507C42.0091 35.1147 41.9503 34.9874 41.8563 34.8881C41.7624 34.7888 41.6384 34.723 41.5035 34.7009C41.3686 34.6788 41.2301 34.7015 41.1094 34.7656Z"
      fill="url(#paint1_radial_1494_1855)"
    />
    <path
      d="M21.5155 42.7031C20.1247 41.8393 18.9191 40.7081 17.9686 39.375C16.8832 37.8894 16.1361 36.1842 15.7796 34.3791C15.4232 32.5741 15.4661 30.7129 15.9053 28.9262C16.3446 27.1395 17.1695 25.4706 18.3222 24.0365C19.4749 22.6025 20.9275 21.4381 22.578 20.625C23.078 20.3906 23.9061 19.9844 25.0155 20C25.7961 20.006 26.5648 20.1925 27.2614 20.5449C27.958 20.8973 28.5637 21.406 29.0311 22.0312C29.6598 22.8767 30.0044 23.8996 30.0155 24.9531C30.0155 24.9219 33.8436 12.5156 17.5155 12.5156C10.6561 12.5156 5.01548 19.0156 5.01548 24.7344C4.98819 27.7552 5.63404 30.7443 6.9061 33.4844C8.98934 37.9204 12.6288 41.437 17.1337 43.3669C21.6385 45.2967 26.6951 45.5053 31.3436 43.9531C29.715 44.4675 27.9942 44.6221 26.3 44.4063C24.6058 44.1905 22.9787 43.6094 21.5311 42.7031H21.5155Z"
      fill="url(#paint2_linear_1494_1855)"
    />
    <path
      opacity="0.41"
      d="M21.5155 42.7031C20.1247 41.8393 18.9191 40.7081 17.9686 39.375C16.8832 37.8894 16.1361 36.1842 15.7796 34.3791C15.4232 32.5741 15.4661 30.7129 15.9053 28.9262C16.3446 27.1395 17.1695 25.4706 18.3222 24.0365C19.4749 22.6025 20.9275 21.4381 22.578 20.625C23.078 20.3906 23.9061 19.9844 25.0155 20C25.7961 20.006 26.5648 20.1925 27.2614 20.5449C27.958 20.8973 28.5637 21.406 29.0311 22.0312C29.6598 22.8767 30.0044 23.8996 30.0155 24.9531C30.0155 24.9219 33.8436 12.5156 17.5155 12.5156C10.6561 12.5156 5.01548 19.0156 5.01548 24.7344C4.98819 27.7552 5.63404 30.7443 6.9061 33.4844C8.98934 37.9204 12.6288 41.437 17.1337 43.3669C21.6385 45.2967 26.6951 45.5053 31.3436 43.9531C29.715 44.4675 27.9942 44.6221 26.3 44.4063C24.6058 44.1905 22.9787 43.6094 21.5311 42.7031H21.5155Z"
      fill="url(#paint3_radial_1494_1855)"
    />
    <path
      d="M28.8125 28.25C28.6719 28.4062 28.2812 28.6406 28.2812 29.125C28.2812 29.5312 28.5469 29.9375 29.0312 30.2656C31.2656 31.8281 35.5 31.6094 35.5156 31.6094C37.1813 31.6083 38.8163 31.1604 40.25 30.3125C41.6934 29.4682 42.8911 28.2613 43.7243 26.8114C44.5575 25.3616 44.9973 23.7191 45 22.0469C45.0469 18.5469 43.75 16.2187 43.2344 15.1875C39.9062 8.71875 32.7656 5 25 5C19.744 4.99948 14.6991 7.06797 10.9564 10.7581C7.21363 14.4482 5.07391 19.4633 5 24.7187C5.07812 19.0156 10.75 14.4062 17.5 14.4062C18.0469 14.4062 21.1719 14.4531 24.0625 15.9687C26.0933 16.9779 27.775 18.5725 28.8906 20.5469C29.8437 22.2031 30.0156 24.3125 30.0156 25.1562C30.0156 26 29.5937 27.2344 28.7969 28.2656L28.8125 28.25Z"
      fill="url(#paint4_radial_1494_1855)"
    />
    <path
      d="M28.8125 28.25C28.6719 28.4062 28.2812 28.6406 28.2812 29.125C28.2812 29.5312 28.5469 29.9375 29.0312 30.2656C31.2656 31.8281 35.5 31.6094 35.5156 31.6094C37.1813 31.6083 38.8163 31.1604 40.25 30.3125C41.6934 29.4682 42.8911 28.2613 43.7243 26.8114C44.5575 25.3616 44.9973 23.7191 45 22.0469C45.0469 18.5469 43.75 16.2187 43.2344 15.1875C39.9062 8.71875 32.7656 5 25 5C19.744 4.99948 14.6991 7.06797 10.9564 10.7581C7.21363 14.4482 5.07391 19.4633 5 24.7187C5.07812 19.0156 10.75 14.4062 17.5 14.4062C18.0469 14.4062 21.1719 14.4531 24.0625 15.9687C26.0933 16.9779 27.775 18.5725 28.8906 20.5469C29.8437 22.2031 30.0156 24.3125 30.0156 25.1562C30.0156 26 29.5937 27.2344 28.7969 28.2656L28.8125 28.25Z"
      fill="url(#paint5_radial_1494_1855)"
    />
  </g>
  <defs>
    <linearGradient
      id="paint0_linear_1494_1855"
      x1="14.1719"
      y1="32.6562"
      x2="42.0469"
      y2="32.6562"
      gradientUnits="userSpaceOnUse"
    >
      <stop stop-color="#0C59A4" />
      <stop offset="1" stop-color="#114A8B" />
    </linearGradient>
    <radialGradient
      id="paint1_radial_1494_1855"
      cx="0"
      cy="0"
      r="1"
      gradientUnits="userSpaceOnUse"
      gradientTransform="translate(29.5625 32.8664) scale(14.9063 14.1609)"
    >
      <stop offset="0.7" stop-opacity="0" />
      <stop offset="0.9" stop-opacity="0.5" />
      <stop offset="1" />
    </radialGradient>
    <linearGradient
      id="paint2_linear_1494_1855"
      x1="28.8592"
      y1="20.5625"
      x2="11.4686"
      y2="39.5156"
      gradientUnits="userSpaceOnUse"
    >
      <stop stop-color="#1B9DE2" />
      <stop offset="0.2" stop-color="#1595DF" />
      <stop offset="0.7" stop-color="#0680D7" />
      <stop offset="1" stop-color="#0078D4" />
    </linearGradient>
    <radialGradient
      id="paint3_radial_1494_1855"
      cx="0"
      cy="0"
      r="1"
      gradientUnits="userSpaceOnUse"
      gradientTransform="translate(16.0241 36.0839) rotate(-81.3844) scale(22.4041 18.1002)"
    >
      <stop offset="0.8" stop-opacity="0" />
      <stop offset="0.9" stop-opacity="0.5" />
      <stop offset="1" />
    </radialGradient>
    <radialGradient
      id="paint4_radial_1494_1855"
      cx="0"
      cy="0"
      r="1"
      gradientUnits="userSpaceOnUse"
      gradientTransform="translate(9.04531 12.3931) rotate(92.2906) scale(31.6503 67.4085)"
    >
      <stop stop-color="#35C1F1" />
      <stop offset="0.1" stop-color="#34C1ED" />
      <stop offset="0.2" stop-color="#2FC2DF" />
      <stop offset="0.3" stop-color="#2BC3D2" />
      <stop offset="0.7" stop-color="#36C752" />
    </radialGradient>
    <radialGradient
      id="paint5_radial_1494_1855"
      cx="0"
      cy="0"
      r="1"
      gradientUnits="userSpaceOnUse"
      gradientTransform="translate(42.5094 17.0781) rotate(73.7398) scale(15.2031 12.3632)"
    >
      <stop stop-color="#66EB6E" />
      <stop offset="1" stop-color="#66EB6E" stop-opacity="0" />
    </radialGradient>
    <clipPath id="clip0_1494_1855">
      <rect width="40" height="40" fill="white" transform="translate(5 5)" />
    </clipPath>
  </defs>
</svg>
