<svg viewBox="0 0 192 40" fill="none" xmlns="http://www.w3.org/2000/svg">
  <g filter="url(#filter0_d_1517_3916)">
    <path
      d="M60.7055 10.3H63.7295L58.679 18.3745V25H56.117V18.3745L51.0665 10.3H54.0905L57.398 15.5815L60.7055 10.3ZM68.006 25.273C67.04 25.273 66.158 25.0245 65.36 24.5275C64.569 24.0305 63.9355 23.3655 63.4595 22.5325C62.9905 21.6925 62.756 20.765 62.756 19.75C62.756 18.98 62.8925 18.2625 63.1655 17.5975C63.4385 16.9255 63.813 16.3375 64.289 15.8335C64.772 15.3225 65.332 14.9235 65.969 14.6365C66.606 14.3495 67.285 14.206 68.006 14.206C68.972 14.206 69.8505 14.4545 70.6415 14.9515C71.4395 15.4485 72.073 16.117 72.542 16.957C73.018 17.797 73.256 18.728 73.256 19.75C73.256 20.513 73.1195 21.227 72.8465 21.892C72.5735 22.557 72.1955 23.145 71.7125 23.656C71.2365 24.16 70.68 24.5555 70.043 24.8425C69.413 25.1295 68.734 25.273 68.006 25.273ZM68.006 22.711C68.517 22.711 68.9755 22.5745 69.3815 22.3015C69.7875 22.0285 70.106 21.668 70.337 21.22C70.575 20.772 70.694 20.282 70.694 19.75C70.694 19.204 70.5715 18.707 70.3265 18.259C70.0885 17.804 69.763 17.4435 69.35 17.1775C68.944 16.9045 68.496 16.768 68.006 16.768C67.502 16.768 67.047 16.9045 66.641 17.1775C66.235 17.4505 65.913 17.8145 65.675 18.2695C65.437 18.7245 65.318 19.218 65.318 19.75C65.318 20.303 65.4405 20.8035 65.6855 21.2515C65.9305 21.6995 66.256 22.0565 66.662 22.3225C67.075 22.5815 67.523 22.711 68.006 22.711ZM81.4376 14.5H84.1571L78.4136 30.25H75.6941L77.5946 25L73.8146 14.5H76.6181L78.8756 21.493L81.4376 14.5ZM89.8263 25.273C88.8603 25.273 87.9783 25.0245 87.1803 24.5275C86.3893 24.0305 85.7558 23.3655 85.2798 22.5325C84.8108 21.6925 84.5763 20.765 84.5763 19.75C84.5763 18.98 84.7128 18.2625 84.9858 17.5975C85.2588 16.9255 85.6333 16.3375 86.1093 15.8335C86.5923 15.3225 87.1523 14.9235 87.7893 14.6365C88.4263 14.3495 89.1053 14.206 89.8263 14.206C90.7923 14.206 91.6708 14.4545 92.4618 14.9515C93.2598 15.4485 93.8933 16.117 94.3623 16.957C94.8383 17.797 95.0763 18.728 95.0763 19.75C95.0763 20.513 94.9398 21.227 94.6668 21.892C94.3938 22.557 94.0158 23.145 93.5328 23.656C93.0568 24.16 92.5003 24.5555 91.8633 24.8425C91.2333 25.1295 90.5543 25.273 89.8263 25.273ZM89.8263 22.711C90.3373 22.711 90.7958 22.5745 91.2018 22.3015C91.6078 22.0285 91.9263 21.668 92.1573 21.22C92.3953 20.772 92.5143 20.282 92.5143 19.75C92.5143 19.204 92.3918 18.707 92.1468 18.259C91.9088 17.804 91.5833 17.4435 91.1703 17.1775C90.7643 16.9045 90.3163 16.768 89.8263 16.768C89.3223 16.768 88.8673 16.9045 88.4613 17.1775C88.0553 17.4505 87.7333 17.8145 87.4953 18.2695C87.2573 18.7245 87.1383 19.218 87.1383 19.75C87.1383 20.303 87.2608 20.8035 87.5058 21.2515C87.7508 21.6995 88.0763 22.0565 88.4823 22.3225C88.8953 22.5815 89.3433 22.711 89.8263 22.711ZM107.294 25.273C106.482 25.273 105.702 25.147 104.953 24.895C104.211 24.636 103.56 24.2685 103 23.7925C102.44 23.3095 102.037 22.732 101.792 22.06L104.197 21.178C104.295 21.458 104.494 21.7135 104.795 21.9445C105.096 22.1755 105.464 22.361 105.898 22.501C106.332 22.641 106.797 22.711 107.294 22.711C107.805 22.711 108.281 22.634 108.722 22.48C109.17 22.319 109.531 22.0985 109.804 21.8185C110.077 21.5315 110.213 21.199 110.213 20.821C110.213 20.436 110.07 20.121 109.783 19.876C109.496 19.624 109.128 19.4245 108.68 19.2775C108.232 19.1305 107.77 19.0185 107.294 18.9415C106.251 18.7805 105.317 18.532 104.491 18.196C103.665 17.86 103.01 17.3945 102.527 16.7995C102.051 16.2045 101.813 15.4345 101.813 14.4895C101.813 13.6005 102.069 12.8235 102.58 12.1585C103.091 11.4935 103.763 10.9755 104.596 10.6045C105.429 10.2335 106.328 10.048 107.294 10.048C108.099 10.048 108.876 10.174 109.625 10.426C110.374 10.678 111.029 11.0455 111.589 11.5285C112.156 12.0115 112.562 12.5925 112.807 13.2715L110.392 14.143C110.294 13.863 110.094 13.6075 109.793 13.3765C109.492 13.1455 109.125 12.9635 108.691 12.8305C108.257 12.6905 107.791 12.6205 107.294 12.6205C106.797 12.6135 106.325 12.694 105.877 12.862C105.436 13.023 105.075 13.2435 104.795 13.5235C104.515 13.8035 104.375 14.1255 104.375 14.4895C104.375 14.9585 104.505 15.312 104.764 15.55C105.03 15.788 105.383 15.963 105.824 16.075C106.265 16.18 106.755 16.278 107.294 16.369C108.274 16.523 109.181 16.782 110.014 17.146C110.847 17.51 111.515 17.9965 112.019 18.6055C112.523 19.2075 112.775 19.946 112.775 20.821C112.775 21.71 112.523 22.4905 112.019 23.1625C111.515 23.8275 110.847 24.3455 110.014 24.7165C109.181 25.0875 108.274 25.273 107.294 25.273ZM124.786 18.364V25H122.224V19.036C122.224 18.623 122.123 18.2485 121.92 17.9125C121.717 17.5695 121.444 17.3 121.101 17.104C120.765 16.901 120.39 16.7995 119.977 16.7995C119.564 16.7995 119.186 16.901 118.843 17.104C118.507 17.3 118.238 17.5695 118.035 17.9125C117.839 18.2485 117.741 18.623 117.741 19.036V25H115.179L115.168 9.25H117.73L117.741 15.4345C118.098 15.0565 118.525 14.759 119.022 14.542C119.519 14.318 120.054 14.206 120.628 14.206C121.391 14.206 122.088 14.395 122.718 14.773C123.348 15.144 123.848 15.6445 124.219 16.2745C124.597 16.8975 124.786 17.594 124.786 18.364ZM131.293 25.273C130.327 25.273 129.445 25.0245 128.647 24.5275C127.856 24.0305 127.223 23.3655 126.747 22.5325C126.278 21.6925 126.043 20.765 126.043 19.75C126.043 18.98 126.18 18.2625 126.453 17.5975C126.726 16.9255 127.1 16.3375 127.576 15.8335C128.059 15.3225 128.619 14.9235 129.256 14.6365C129.893 14.3495 130.572 14.206 131.293 14.206C132.259 14.206 133.138 14.4545 133.929 14.9515C134.727 15.4485 135.36 16.117 135.829 16.957C136.305 17.797 136.543 18.728 136.543 19.75C136.543 20.513 136.407 21.227 136.134 21.892C135.861 22.557 135.483 23.145 135 23.656C134.524 24.16 133.967 24.5555 133.33 24.8425C132.7 25.1295 132.021 25.273 131.293 25.273ZM131.293 22.711C131.804 22.711 132.263 22.5745 132.669 22.3015C133.075 22.0285 133.393 21.668 133.624 21.22C133.862 20.772 133.981 20.282 133.981 19.75C133.981 19.204 133.859 18.707 133.614 18.259C133.376 17.804 133.05 17.4435 132.637 17.1775C132.231 16.9045 131.783 16.768 131.293 16.768C130.789 16.768 130.334 16.9045 129.928 17.1775C129.522 17.4505 129.2 17.8145 128.962 18.2695C128.724 18.7245 128.605 19.218 128.605 19.75C128.605 20.303 128.728 20.8035 128.973 21.2515C129.218 21.6995 129.543 22.0565 129.949 22.3225C130.362 22.5815 130.81 22.711 131.293 22.711ZM138.188 25L138.178 14.5H140.74L140.75 15.4345C141.107 15.0565 141.534 14.759 142.031 14.542C142.528 14.318 143.064 14.206 143.638 14.206C144.023 14.206 144.408 14.262 144.793 14.374L143.785 16.957C143.519 16.852 143.253 16.7995 142.987 16.7995C142.574 16.7995 142.196 16.901 141.853 17.104C141.517 17.3 141.247 17.5695 141.044 17.9125C140.848 18.2485 140.75 18.623 140.75 19.036V25H138.188ZM151.886 17.062H149.849V25H147.287V17.062H145.733V14.5H147.287V11.203H149.849V14.5H151.886V17.062ZM160.048 21.8395L162.358 23.089C161.875 23.747 161.27 24.2755 160.542 24.6745C159.814 25.0735 159.019 25.273 158.158 25.273C157.192 25.273 156.31 25.0245 155.512 24.5275C154.721 24.0305 154.088 23.3655 153.612 22.5325C153.143 21.6925 152.908 20.765 152.908 19.75C152.908 18.98 153.045 18.2625 153.318 17.5975C153.591 16.9255 153.965 16.3375 154.441 15.8335C154.924 15.3225 155.484 14.9235 156.121 14.6365C156.758 14.3495 157.437 14.206 158.158 14.206C159.019 14.206 159.814 14.4055 160.542 14.8045C161.27 15.2035 161.875 15.739 162.358 16.411L160.048 17.65C159.803 17.37 159.513 17.153 159.177 16.999C158.848 16.845 158.508 16.768 158.158 16.768C157.654 16.768 157.199 16.908 156.793 17.188C156.387 17.461 156.065 17.825 155.827 18.28C155.589 18.728 155.47 19.218 155.47 19.75C155.47 20.275 155.589 20.765 155.827 21.22C156.065 21.668 156.387 22.0285 156.793 22.3015C157.199 22.5745 157.654 22.711 158.158 22.711C158.522 22.711 158.869 22.634 159.198 22.48C159.527 22.319 159.81 22.1055 160.048 21.8395ZM163.577 21.115V14.5H166.139V20.443C166.139 20.856 166.241 21.234 166.444 21.577C166.647 21.913 166.916 22.1825 167.252 22.3855C167.595 22.5815 167.97 22.6795 168.376 22.6795C168.796 22.6795 169.174 22.5815 169.51 22.3855C169.846 22.1825 170.115 21.913 170.318 21.577C170.521 21.234 170.623 20.856 170.623 20.443V14.5H173.185L173.195 25H170.633L170.623 24.0445C170.259 24.4225 169.828 24.7235 169.331 24.9475C168.834 25.1645 168.302 25.273 167.735 25.273C166.972 25.273 166.276 25.0875 165.646 24.7165C165.016 24.3385 164.512 23.838 164.134 23.215C163.763 22.585 163.577 21.885 163.577 21.115ZM180.925 17.062H178.888V25H176.326V17.062H174.772V14.5H176.326V11.203H178.888V14.5H180.925V17.062Z"
      fill="#D8EAFF"
    />
  </g>
  <g filter="url(#filter1_d_1517_3916)">
    <path
      fill-rule="evenodd"
      clip-rule="evenodd"
      d="M10.1829 17.5C10.1829 10.5524 15.0713 4.746 21.5976 3.32999C20.6014 3.11385 19.567 3 18.5061 3C10.4946 3 4 9.49187 4 17.5C4 25.5081 10.4946 32 18.5061 32C19.567 32 20.6014 31.8862 21.5976 31.67C15.0713 30.254 10.1829 24.4476 10.1829 17.5Z"
      fill="#4358E2"
    />
    <path
      fill-rule="evenodd"
      clip-rule="evenodd"
      d="M28.4939 32C36.5054 32 43 25.5081 43 17.5C43 9.49187 36.5054 3 28.4939 3C20.4824 3 13.9878 9.49187 13.9878 17.5C13.9878 18.5288 14.095 19.5326 14.2988 20.5008C15.5083 19.4697 16.5813 18.5421 17.5417 17.7118L17.5418 17.7118L17.5418 17.7117C19.9434 15.6355 21.6411 14.1678 23.0092 13.2133C24.1389 12.4251 25.1719 11.8871 26.3164 11.6132C27.0148 11.4461 27.7097 11.3883 28.4349 11.4005C28.4808 11.3994 28.5269 11.3989 28.5731 11.3989C28.835 11.3989 29.093 11.4156 29.3461 11.448C29.5091 11.4616 29.674 11.4776 29.8414 11.4957L29.8379 11.5318C32.5578 12.1127 34.5975 14.5286 34.5975 17.4208C34.5975 20.7466 31.9003 23.4426 28.5731 23.4426C25.3983 23.4426 22.797 20.9878 22.5655 17.8734C21.7919 18.5213 20.9024 19.2908 19.8444 20.2062C18.6388 21.2492 17.2143 22.4816 15.493 23.9391C17.8657 28.7164 22.7962 32 28.4939 32Z"
      fill="url(#paint0_linear_1517_3916)"
    />
  </g>
  <defs>
    <filter
      id="filter0_d_1517_3916"
      x="47.0664"
      y="9.25"
      width="137.859"
      height="29"
      filterUnits="userSpaceOnUse"
      color-interpolation-filters="sRGB"
    >
      <feFlood flood-opacity="0" result="BackgroundImageFix" />
      <feColorMatrix
        in="SourceAlpha"
        type="matrix"
        values="0 0 0 0 0 0 0 0 0 0 0 0 0 0 0 0 0 0 127 0"
        result="hardAlpha"
      />
      <feOffset dy="4" />
      <feGaussianBlur stdDeviation="2" />
      <feComposite in2="hardAlpha" operator="out" />
      <feColorMatrix
        type="matrix"
        values="0 0 0 0 0 0 0 0 0 0 0 0 0 0 0 0 0 0 0.25 0"
      />
      <feBlend
        mode="normal"
        in2="BackgroundImageFix"
        result="effect1_dropShadow_1517_3916"
      />
      <feBlend
        mode="normal"
        in="SourceGraphic"
        in2="effect1_dropShadow_1517_3916"
        result="shape"
      />
    </filter>
    <filter
      id="filter1_d_1517_3916"
      x="0"
      y="3"
      width="47"
      height="37"
      filterUnits="userSpaceOnUse"
      color-interpolation-filters="sRGB"
    >
      <feFlood flood-opacity="0" result="BackgroundImageFix" />
      <feColorMatrix
        in="SourceAlpha"
        type="matrix"
        values="0 0 0 0 0 0 0 0 0 0 0 0 0 0 0 0 0 0 127 0"
        result="hardAlpha"
      />
      <feOffset dy="4" />
      <feGaussianBlur stdDeviation="2" />
      <feComposite in2="hardAlpha" operator="out" />
      <feColorMatrix
        type="matrix"
        values="0 0 0 0 0 0 0 0 0 0 0 0 0 0 0 0 0 0 0.25 0"
      />
      <feBlend
        mode="normal"
        in2="BackgroundImageFix"
        result="effect1_dropShadow_1517_3916"
      />
      <feBlend
        mode="normal"
        in="SourceGraphic"
        in2="effect1_dropShadow_1517_3916"
        result="shape"
      />
    </filter>
    <linearGradient
      id="paint0_linear_1517_3916"
      x1="13.9878"
      y1="17.2157"
      x2="50.9931"
      y2="17.2157"
      gradientUnits="userSpaceOnUse"
    >
      <stop stop-color="#445AE9" />
      <stop offset="1" stop-color="#35A7E7" />
    </linearGradient>
  </defs>
</svg>
